<svg width="334" height="85" viewBox="0 0 334 85" fill="none" xmlns="http://www.w3.org/2000/svg">
    <path d="M6.36241 23.5611L0.0834961 0.414141H4.20227L9.02658 18.1922L14.197 0.412598L18.0364 0.414141L23.2248 18.2867L28.0708 0.418513L32.1895 0.412598L25.9079 23.557L21.1338 23.5521L16.1182 6.26628L11.098 23.5566L6.36241 23.5611Z"
          fill="white"/>
    <path d="M35.03 0.426758H38.9506V23.5467H35.03V0.426758Z" fill="white"/>
    <path d="M47.3329 19.9201H56.8777V23.5467H43.4933V0.426758H47.3329V19.9201Z" fill="white"/>
    <path d="M68.9376 0.453414C72.1552 0.453414 74.8321 1.57344 76.9412 3.78676C79.0773 6.00007 80.1589 8.74679 80.1589 12.0001C80.1589 15.2268 79.0773 17.9734 76.9412 20.2134C74.8321 22.4268 72.1552 23.5467 68.9376 23.5467H59.7171V0.426758H68.9376V0.453414ZM68.9376 19.9467C71.1547 19.9467 72.9664 19.2001 74.3184 17.7068C75.7244 16.2134 76.4274 14.2934 76.4274 12.0267C76.4274 9.70678 75.7244 7.8401 74.3184 6.34679C72.9394 4.85339 71.1277 4.10673 68.9376 4.10673H63.5838V19.9467H68.9376Z"
          fill="white"/>
    <path d="M100.844 16.942C100.844 18.8363 100.169 20.4104 98.7895 21.6644C97.4103 22.9184 95.7878 23.5587 93.7872 23.5587H83.7554V0.426758H93.0569C94.9769 0.426758 96.5986 1.06713 97.9238 2.26773C99.2763 3.49499 99.9252 5.01582 99.9252 6.83004C99.9252 8.85779 99.1135 10.4053 97.5458 11.5526C99.6003 12.6198 100.844 14.5407 100.844 16.942ZM87.6218 4.00199V10.0851H93.0835C94.7875 10.0851 96.0852 8.75107 96.0852 7.04356C96.0852 5.33596 94.7875 4.00199 93.0835 4.00199H87.6218ZM93.8138 19.9836C95.5983 19.9836 97.0049 18.5695 97.0049 16.7552C97.0049 14.9409 95.5983 13.5269 93.8138 13.5269H87.6218V20.0102H93.8138V19.9836Z"
          fill="white"/>
    <path d="M108.334 19.9302H118.717V23.5587H104.494V0.426758H118.555V4.0553H108.334V10.0584H117.717V13.6603H108.334V19.9302Z"
          fill="white"/>
    <path d="M135.537 23.5587L130.561 15.1277H126.018V23.5587H122.179V0.426758H131.561C133.671 0.426758 135.455 1.1471 136.888 2.61453C138.348 4.02864 139.106 5.78956 139.106 7.87061C139.106 10.8055 137.24 13.5002 134.455 14.5674L139.781 23.5587H135.537ZM126.018 4.0019V11.7392H131.535C133.589 11.7392 135.212 10.0317 135.212 7.87061C135.212 5.73616 133.563 4.0019 131.535 4.0019H126.018Z"
          fill="white"/>
    <path d="M156.058 23.558L151.11 15.1226H146.567V23.558H142.728V0.414062H152.11C154.22 0.414062 156.004 1.13483 157.437 2.60303C158.897 4.01783 159.655 5.7796 159.655 7.86178C159.655 10.7982 157.789 13.4943 155.004 14.5621L160.33 23.558H156.058ZM146.567 3.99109V11.7325H152.084C154.138 11.7325 155.761 10.024 155.761 7.86178C155.761 5.72629 154.112 3.99109 152.084 3.99109H146.567Z"
          fill="white"/>
    <path d="M163.143 0.416992H166.983V23.5584H163.143V0.416992Z" fill="white"/>
    <path d="M175.365 19.9302H185.748V23.5586H171.525V0.426758H185.585V4.0553H175.365V10.0584H184.747V13.6603H175.365V19.9302Z"
          fill="white"/>
    <path d="M188.425 18.2933L191.751 16.3733C192.697 18.9867 194.617 20.2666 197.564 20.2666C200.484 20.2666 201.917 19.04 201.917 17.2267C201.917 16.2667 201.512 15.5733 200.755 15.0933C199.997 14.5867 198.592 14.0266 196.591 13.44C194.346 12.7733 193.238 12.3466 191.669 11.3333C190.156 10.2667 189.398 8.74663 189.398 6.66669C189.398 4.61331 190.128 3.01337 191.615 1.81337C193.076 0.586629 194.86 0 196.942 0C200.701 0 203.594 1.92 205.108 5.09331L201.863 6.93334C200.89 4.8 199.24 3.70663 196.942 3.70663C194.698 3.70663 193.264 4.82666 193.264 6.58663C193.264 8.29337 194.4 9.09334 197.997 10.1866C198.889 10.48 199.538 10.6934 199.943 10.8533C200.376 10.9867 200.943 11.2267 201.674 11.52C202.431 11.8133 203.026 12.16 203.378 12.4533C204.622 13.4133 205.946 14.9866 205.784 17.2C205.784 19.28 205.027 20.96 203.486 22.1866C201.971 23.4134 199.971 24 197.483 24C192.94 23.9733 189.641 21.84 188.425 18.2933Z"
          fill="white"/>
    <path d="M239.394 19.0018C242.088 18.6602 244.264 16.4839 244.608 13.7876C244.728 12.8673 244.635 11.9318 244.336 11.0532C244.037 10.1745 243.541 9.37631 242.884 8.72008C242.228 8.06384 241.43 7.56713 240.551 7.26828C239.673 6.96943 238.737 6.87643 237.817 6.99644C235.12 7.34019 232.944 9.51654 232.603 12.2107C232.483 13.1309 232.576 14.0665 232.874 14.9451C233.173 15.8237 233.67 16.6219 234.326 17.2782C234.982 17.9344 235.781 18.4311 236.659 18.73C237.538 19.0288 238.473 19.1218 239.394 19.0018ZM239.761 1.71133C242.355 1.98438 244.776 3.1396 246.621 4.98382C248.465 6.82804 249.62 9.24948 249.893 11.8433C250.604 19.019 244.623 25.0002 237.445 24.2891C234.852 24.0156 232.431 22.8601 230.587 21.016C228.743 19.1718 227.588 16.7506 227.315 14.1571C226.604 6.9814 232.585 1.0002 239.761 1.71133ZM255.982 2.16035H272.591C273.223 2.16035 273.579 2.88222 273.199 3.38495L261.707 18.5463H270.711C272.353 18.5463 273.644 20.0395 273.304 21.7411C273.055 22.9893 271.884 23.8401 270.612 23.8401H252.574C251.949 23.8401 251.595 23.1246 251.971 22.6283L263.471 7.45406H256.08C254.809 7.45406 253.638 6.60113 253.388 5.35505C253.047 3.6535 254.34 2.16035 255.982 2.16035ZM328.063 2.2205C329.778 1.85957 331.286 3.15721 331.286 4.8072V23.0752C331.286 23.7133 330.549 24.0678 330.051 23.6725L315.723 12.3052V21.1975C315.723 22.8475 314.215 24.1451 312.5 23.7842C311.271 23.5264 310.429 22.3813 310.429 21.1266V2.92304C310.429 2.28496 311.166 1.93047 311.664 2.32578L325.994 13.6931V4.8781C325.994 3.62342 326.839 2.48046 328.065 2.2205H328.063ZM290.756 1.65332C299.528 1.65332 306.639 6.73219 306.639 12.997C306.639 19.2618 299.528 24.3406 290.756 24.3406C281.984 24.3406 274.873 19.2618 274.873 12.997C274.873 6.73219 281.984 1.65332 290.756 1.65332ZM290.756 6.94703C284.695 6.94703 280.166 10.1417 280.166 12.997C280.166 15.8522 284.695 19.0469 290.756 19.0469C296.817 19.0469 301.346 15.8544 301.346 12.997C301.346 10.1396 296.817 6.94703 290.756 6.94703Z"
          fill="white"/>
    <path fill-rule="evenodd" clip-rule="evenodd"
          d="M32.6838 70.1411C30.0069 76.0752 24.0456 80.1901 17.0958 80.1901C11.2178 80.1901 5.98694 77.2198 2.90442 72.6872L8.82545 64.8453L7.67441 72.9452L13.9412 75.1193L21.5722 62.9269C21.2311 65.1863 20.6769 70.4299 25.6647 72.0499C28.1294 72.8 30.4973 71.9213 32.6838 70.1411ZM33.8798 59.8215C31.4242 63.527 29.0577 66.1473 27.7963 65.8258C25.6595 65.2811 27.5169 58.5598 28.755 54.0795C28.7767 54.0011 28.7982 53.9234 28.8194 53.8464V53.7185L21.8706 51.3312L13.5575 64.8879L14.7085 57.4701L8.69756 55.3811L0.292274 66.3818C0.0912143 65.3186 -0.00943655 64.2198 0.000696068 63.0951C0.000696068 53.631 7.63167 46 17.0958 46C25.4398 46 32.359 51.9316 33.8798 59.8215Z"
          fill="white"/>
    <path d="M52.3942 75.6296H56.1457L61.3893 56.1471V75.6296H65.6098V49.8804H59.812L54.5683 68.766L49.3247 49.8804H43.399V75.6296H47.0226V56.1471L52.3942 75.6296ZM83.2591 62.8829C83.2591 58.3213 80.9996 56.6161 76.3102 56.6161C73.3687 56.6161 71.0666 57.5113 69.7024 58.3213V61.945C70.8534 61.0497 73.4539 60.1118 75.756 60.1118C77.9302 60.1118 78.8254 60.9218 78.8254 62.8402V63.8634H78.1433C71.4076 63.8634 68.3382 66.1228 68.3382 69.917C68.3382 73.7112 70.5976 75.8427 74.0507 75.8427C76.6512 75.8427 77.8023 75.0327 78.6123 74.1375H78.8254C78.8254 74.6064 79.0386 75.2885 79.1665 75.6296H83.5149C83.387 74.1375 83.3017 72.5601 83.3017 71.068C83.2591 71.068 83.2591 62.8829 83.2591 62.8829ZM78.8254 71.1959C78.2712 72.0059 77.2481 72.688 75.6281 72.688C73.795 72.688 72.8997 71.537 72.8997 69.9596C72.8997 67.7854 74.3918 67.0181 78.2712 67.0181H78.9533V71.2386H78.8254V71.1959ZM90.89 56.9571H86.7974V81.0011H91.2311V73.498C92.3821 75.2033 93.9595 76.0132 95.9205 76.0132C100.269 76.0132 103.21 72.6028 103.21 66.336C103.21 60.0692 100.354 56.6587 96.1337 56.6587C94.0874 56.6587 92.3821 57.554 91.1032 59.3871C91.1458 59.3445 90.89 56.9571 90.89 56.9571ZM94.6842 72.5601C92.4247 72.5601 91.1458 70.6417 91.1458 66.4212C91.1458 62.0729 92.3821 60.1545 94.8974 60.1545C97.2847 60.1545 98.521 62.0729 98.521 66.2933C98.521 70.6417 97.2847 72.5601 94.6842 72.5601ZM116.98 75.6296H122.011L114.934 65.6113L121.201 56.9571H116.767L110.5 65.6113V56.9571H106.067V75.6296H110.5V66.5065L116.98 75.6296ZM136.804 74.3933V70.7696C135.44 71.6649 133.18 72.4749 131.006 72.4749C127.809 72.4749 126.572 70.9828 126.316 67.7854H136.889V65.3981C136.889 58.9182 134.033 56.5308 129.599 56.5308C124.228 56.5308 121.627 60.6234 121.627 66.336C121.627 72.8159 124.824 76.0132 130.409 76.0132C133.521 75.9706 135.567 75.2885 136.804 74.3933ZM129.642 60.1545C131.816 60.1545 132.498 61.9876 132.498 64.2471V64.5881H126.316C126.444 61.6466 127.595 60.1545 129.642 60.1545ZM152.748 60.4955V56.9571H137.955V60.4955H143.198V75.6296H147.632V60.4955H152.748Z"
          fill="white"/>
    <path d="M216.706 75.5682V51.0723H231.184V54.1434H219.704V61.675H230.014V64.7461H219.704V72.424H231.988V75.4951H216.706V75.5682Z"
          fill="white"/>
    <path d="M247.197 75.5667L242.225 69.0588L237.253 75.5667H233.743L240.543 66.8651L233.377 57.8711H237.326L242.225 64.5983L247.197 57.8711H251.073L244.273 66.8651L250.707 75.5667H247.197Z"
          fill="white"/>
    <path d="M255.534 72.9355V85.0007H252.536V66.9395C252.536 62.3328 256.046 57.4336 261.53 57.4336C267.087 57.4336 271.255 60.9435 271.255 66.7201C271.255 72.3505 267.014 76.226 262.188 76.226C259.848 76.226 256.704 75.2023 255.534 72.9355ZM268.111 66.7201C268.111 62.7715 265.551 60.4316 261.018 60.651C258.824 60.7241 255.461 62.3328 255.753 67.9632C255.826 69.7913 257.727 73.228 261.895 73.228C265.478 73.228 268.111 71.1806 268.111 66.7201Z"
          fill="white"/>
    <path d="M273.814 75.567V57.8715H276.812V59.7726C278.275 58.0908 280.542 57.5059 282.955 57.5059V60.7232C282.589 60.6501 279.006 60.2114 276.812 64.8912V75.6402H273.814V75.567Z"
          fill="white"/>
    <path d="M283.759 66.7201C283.759 61.6016 287.415 57.4336 292.46 57.4336C298.749 57.4336 301.089 61.6016 301.089 66.9395V68.4019H287.049C287.269 71.7656 290.267 73.5205 293.045 73.4474C295.093 73.3742 296.482 72.7893 297.945 71.3268L299.919 73.3742C298.091 75.1292 295.751 76.2991 292.899 76.2991C287.561 76.226 283.759 72.2774 283.759 66.7201ZM292.241 60.4316C289.389 60.4316 287.196 62.9178 287.049 65.6233H297.945C297.945 62.9909 296.043 60.4316 292.241 60.4316Z"
          fill="white"/>
    <path d="M302.624 73.084L304.818 71.1097C304.745 71.1097 305.915 72.2796 306.061 72.3527C306.573 72.7915 307.085 73.084 307.743 73.2302C309.644 73.7421 313.081 73.5958 313.373 70.9634C313.519 69.501 312.423 68.6966 311.179 68.1848C309.571 67.5998 307.816 67.3804 306.207 66.6492C304.379 65.8449 303.209 64.4555 303.209 62.4081C303.209 57.0702 310.814 56.1927 314.251 58.6789C314.397 58.8251 316.079 60.3607 316.006 60.3607L313.812 62.1156C312.715 60.7994 311.691 60.1413 309.351 60.1413C308.181 60.1413 306.573 60.6532 306.28 61.8963C305.842 63.6512 307.816 64.3093 309.132 64.6749C310.887 65.1136 312.788 65.4061 314.324 66.3567C316.444 67.6729 316.956 70.5247 316.152 72.7183C315.274 75.1314 312.642 76.082 310.302 76.1551C307.523 76.3013 305.11 75.4239 303.136 73.4496C302.99 73.4496 302.624 73.084 302.624 73.084Z"
          fill="white"/>
    <path d="M318.053 73.084L320.247 71.1097C320.174 71.1097 321.344 72.2796 321.49 72.3527C322.002 72.7915 322.514 73.084 323.172 73.2302C325.073 73.7421 328.51 73.5958 328.802 70.9634C328.948 69.501 327.852 68.6966 326.609 68.1848C325 67.5998 323.245 67.3804 321.636 66.6492C319.808 65.8449 318.638 64.4555 318.638 62.4081C318.638 57.0702 326.243 56.1927 329.68 58.6789C329.826 58.8251 331.508 60.3607 331.435 60.3607L329.241 62.1156C328.144 60.7994 327.12 60.1413 324.781 60.1413C323.611 60.1413 322.002 60.6532 321.709 61.8963C321.271 63.6512 323.245 64.3093 324.561 64.6749C326.316 65.1136 328.217 65.4061 329.753 66.3567C331.873 67.6729 332.385 70.5247 331.581 72.7183C330.703 75.1314 328.071 76.082 325.731 76.1551C322.952 76.3013 320.539 75.4239 318.565 73.4496C318.419 73.4496 318.053 73.084 318.053 73.084Z"
          fill="white"/>
    <path d="M196.377 75.5672L194.184 69.7175H182.338L180.144 75.5672H177L186.506 51.0713H189.943L199.375 75.5672H196.377ZM188.115 54.5812L183.654 66.7194H192.941L188.115 54.5812Z"
          fill="white"/>
    <path d="M201.349 75.5672V51.0713H204.421V75.5672H201.349Z" fill="white"/>
    <path d="M209.028 75.5678V58.2378H212.099V75.5678H209.028Z" fill="white"/>
    <path d="M215.024 52.6067V52.3142C212.684 52.2411 210.782 50.3399 210.709 48H210.271C210.197 50.3399 208.296 52.2411 205.956 52.3142V52.6067C208.296 52.6798 210.197 54.581 210.271 56.9209H210.709C210.782 54.581 212.684 52.6798 215.024 52.6067Z"
          fill="white"/>
</svg>
