<svg width="514" height="185" viewBox="0 0 514 185" fill="none" xmlns="http://www.w3.org/2000/svg">
    <g filter="url(#filter0_d_1_979)">
        <rect x="32" y="32" width="450" height="98" rx="16" fill="white" shape-rendering="crispEdges"/>
        <path d="M83.2359 69.5537V92.8264H76.9177V75.3719H76.7813L71.6904 78.4173V73.0537L77.4177 69.5537H83.2359ZM88.0143 92.8264V88.281L96.6961 81.0991C97.2718 80.6219 97.7643 80.1749 98.1734 79.7582C98.59 79.334 98.9082 78.8984 99.1279 78.4514C99.3552 78.0044 99.4688 77.5082 99.4688 76.9628C99.4688 76.3643 99.34 75.8529 99.0824 75.4287C98.8324 75.0044 98.484 74.6787 98.037 74.4514C97.59 74.2166 97.0749 74.0991 96.4915 74.0991C95.9082 74.0991 95.3931 74.2166 94.9461 74.4514C94.5067 74.6863 94.1658 75.031 93.9234 75.4855C93.6809 75.9401 93.5597 76.4931 93.5597 77.1446H87.5597C87.5597 75.5082 87.9271 74.0991 88.662 72.9173C89.3968 71.7355 90.4347 70.8264 91.7756 70.1901C93.1165 69.5537 94.6885 69.2355 96.4915 69.2355C98.3552 69.2355 99.9688 69.5347 101.332 70.1332C102.704 70.7241 103.76 71.5575 104.503 72.6332C105.253 73.709 105.628 74.9704 105.628 76.4173C105.628 77.3113 105.442 78.2014 105.071 79.0878C104.7 79.9666 104.033 80.9401 103.071 82.0082C102.109 83.0764 100.742 84.3491 98.9688 85.8264L96.787 87.6446V87.781H105.878V92.8264H88.0143ZM118.202 93.1446C116.323 93.1446 114.645 92.8529 113.168 92.2696C111.698 91.6863 110.539 90.8946 109.69 89.8946C108.849 88.8946 108.429 87.7658 108.429 86.5082C108.429 85.5461 108.668 84.6673 109.145 83.8719C109.63 83.0764 110.281 82.4173 111.099 81.8946C111.918 81.3643 112.831 81.0234 113.838 80.8719V80.6901C112.512 80.4628 111.421 79.8757 110.565 78.9287C109.717 77.9741 109.293 76.8491 109.293 75.5537C109.293 74.334 109.679 73.2507 110.452 72.3037C111.224 71.3491 112.281 70.5991 113.622 70.0537C114.963 69.5082 116.49 69.2355 118.202 69.2355C119.914 69.2355 121.44 69.512 122.781 70.0651C124.122 70.6105 125.179 71.3605 125.952 72.3151C126.724 73.262 127.111 74.3416 127.111 75.5537C127.111 76.8567 126.679 77.9817 125.815 78.9287C124.952 79.8757 123.868 80.4628 122.565 80.6901V80.8719C123.565 81.0234 124.474 81.3643 125.293 81.8946C126.111 82.4173 126.762 83.0764 127.247 83.8719C127.732 84.6673 127.974 85.5461 127.974 86.5082C127.974 87.7658 127.55 88.8946 126.702 89.8946C125.861 90.8946 124.702 91.6863 123.224 92.2696C121.755 92.8529 120.081 93.1446 118.202 93.1446ZM118.202 88.781C118.8 88.781 119.331 88.6597 119.793 88.4173C120.255 88.1749 120.618 87.8416 120.884 87.4173C121.156 86.9855 121.293 86.5007 121.293 85.9628C121.293 85.4249 121.156 84.9476 120.884 84.531C120.618 84.1143 120.255 83.7885 119.793 83.5537C119.331 83.3113 118.8 83.1901 118.202 83.1901C117.611 83.1901 117.081 83.3113 116.611 83.5537C116.149 83.7885 115.781 84.1143 115.509 84.531C115.243 84.9476 115.111 85.4249 115.111 85.9628C115.111 86.5007 115.243 86.9817 115.509 87.406C115.781 87.8302 116.149 88.1673 116.611 88.4173C117.081 88.6597 117.611 88.781 118.202 88.781ZM118.202 78.8264C118.732 78.8264 119.202 78.7166 119.611 78.4969C120.02 78.2772 120.342 77.9741 120.577 77.5878C120.812 77.2014 120.929 76.7658 120.929 76.281C120.929 75.7961 120.812 75.3681 120.577 74.9969C120.342 74.6181 120.02 74.3226 119.611 74.1105C119.202 73.8908 118.732 73.781 118.202 73.781C117.679 73.781 117.209 73.8908 116.793 74.1105C116.384 74.3226 116.062 74.6181 115.827 74.9969C115.592 75.3681 115.474 75.7961 115.474 76.281C115.474 76.7658 115.592 77.2014 115.827 77.5878C116.062 77.9666 116.384 78.2696 116.793 78.4969C117.209 78.7166 117.679 78.8264 118.202 78.8264ZM147.307 93.4628C145.193 93.4552 143.367 92.9666 141.83 91.9969C140.292 91.0272 139.106 89.6294 138.273 87.8037C137.439 85.9779 137.027 83.7885 137.034 81.2355C137.042 78.6749 137.458 76.5007 138.284 74.7128C139.117 72.9249 140.299 71.5651 141.83 70.6332C143.367 69.7014 145.193 69.2355 147.307 69.2355C149.421 69.2355 151.246 69.7052 152.784 70.6446C154.322 71.5764 155.508 72.9363 156.341 74.7241C157.174 76.512 157.587 78.6825 157.58 81.2355C157.58 83.8037 157.163 86.0007 156.33 87.8264C155.496 89.6522 154.311 91.0499 152.773 92.0196C151.242 92.9817 149.421 93.4628 147.307 93.4628ZM147.307 88.3264C148.398 88.3264 149.292 87.7582 149.989 86.6219C150.693 85.4779 151.042 83.6825 151.034 81.2355C151.034 79.637 150.875 78.3302 150.557 77.3151C150.239 76.2999 149.799 75.5499 149.239 75.0651C148.678 74.5726 148.034 74.3264 147.307 74.3264C146.216 74.3264 145.326 74.8794 144.636 75.9855C143.947 77.0916 143.595 78.8416 143.58 81.2355C143.572 82.8643 143.727 84.2052 144.046 85.2582C144.364 86.3037 144.803 87.0764 145.364 87.5764C145.932 88.0764 146.58 88.3264 147.307 88.3264ZM170.682 93.4628C168.568 93.4552 166.742 92.9666 165.205 91.9969C163.667 91.0272 162.481 89.6294 161.648 87.8037C160.814 85.9779 160.402 83.7885 160.409 81.2355C160.417 78.6749 160.833 76.5007 161.659 74.7128C162.492 72.9249 163.674 71.5651 165.205 70.6332C166.742 69.7014 168.568 69.2355 170.682 69.2355C172.796 69.2355 174.621 69.7052 176.159 70.6446C177.697 71.5764 178.883 72.9363 179.716 74.7241C180.549 76.512 180.962 78.6825 180.955 81.2355C180.955 83.8037 180.538 86.0007 179.705 87.8264C178.871 89.6522 177.686 91.0499 176.148 92.0196C174.617 92.9817 172.796 93.4628 170.682 93.4628ZM170.682 88.3264C171.773 88.3264 172.667 87.7582 173.364 86.6219C174.068 85.4779 174.417 83.6825 174.409 81.2355C174.409 79.637 174.25 78.3302 173.932 77.3151C173.614 76.2999 173.174 75.5499 172.614 75.0651C172.053 74.5726 171.409 74.3264 170.682 74.3264C169.591 74.3264 168.701 74.8794 168.011 75.9855C167.322 77.0916 166.97 78.8416 166.955 81.2355C166.947 82.8643 167.102 84.2052 167.421 85.2582C167.739 86.3037 168.178 87.0764 168.739 87.5764C169.307 88.0764 169.955 88.3264 170.682 88.3264ZM194.057 93.4628C191.943 93.4552 190.117 92.9666 188.58 91.9969C187.042 91.0272 185.856 89.6294 185.023 87.8037C184.189 85.9779 183.777 83.7885 183.784 81.2355C183.792 78.6749 184.208 76.5007 185.034 74.7128C185.867 72.9249 187.049 71.5651 188.58 70.6332C190.117 69.7014 191.943 69.2355 194.057 69.2355C196.171 69.2355 197.996 69.7052 199.534 70.6446C201.072 71.5764 202.258 72.9363 203.091 74.7241C203.924 76.512 204.337 78.6825 204.33 81.2355C204.33 83.8037 203.913 86.0007 203.08 87.8264C202.246 89.6522 201.061 91.0499 199.523 92.0196C197.992 92.9817 196.171 93.4628 194.057 93.4628ZM194.057 88.3264C195.148 88.3264 196.042 87.7582 196.739 86.6219C197.443 85.4779 197.792 83.6825 197.784 81.2355C197.784 79.637 197.625 78.3302 197.307 77.3151C196.989 76.2999 196.549 75.5499 195.989 75.0651C195.428 74.5726 194.784 74.3264 194.057 74.3264C192.966 74.3264 192.076 74.8794 191.386 75.9855C190.697 77.0916 190.345 78.8416 190.33 81.2355C190.322 82.8643 190.477 84.2052 190.796 85.2582C191.114 86.3037 191.553 87.0764 192.114 87.5764C192.682 88.0764 193.33 88.3264 194.057 88.3264ZM226.58 85.0991H213.807V80.1901H226.352C227.163 80.1901 227.822 80.0916 228.33 79.8946C228.845 79.6901 229.22 79.3946 229.455 79.0082C229.697 78.6143 229.814 78.1294 229.807 77.5537C229.814 77.0082 229.697 76.5082 229.455 76.0537C229.22 75.5991 228.86 75.2355 228.375 74.9628C227.898 74.6901 227.299 74.5537 226.58 74.5537H223.125V92.8264H216.852V69.5537H226.58C228.496 69.5537 230.174 69.8908 231.614 70.5651C233.061 71.2393 234.182 72.1711 234.977 73.3605C235.78 74.5499 236.178 75.9173 236.171 77.4628C236.178 79.1294 235.769 80.531 234.943 81.6673C234.117 82.7961 232.981 83.6522 231.534 84.2355C230.087 84.8113 228.436 85.0991 226.58 85.0991ZM228.171 86.1446V91.0537H213.807V86.1446H228.171Z"
              fill="#FF6536"/>
        <path d="M280.288 92.8264V88.281L288.97 81.0991C289.545 80.6219 290.038 80.1749 290.447 79.7582C290.863 79.334 291.182 78.8984 291.401 78.4514C291.629 78.0044 291.742 77.5082 291.742 76.9628C291.742 76.3643 291.613 75.8529 291.356 75.4287C291.106 75.0044 290.757 74.6787 290.31 74.4514C289.863 74.2166 289.348 74.0991 288.765 74.0991C288.182 74.0991 287.666 74.2166 287.22 74.4514C286.78 74.6863 286.439 75.031 286.197 75.4855C285.954 75.9401 285.833 76.4931 285.833 77.1446H279.833C279.833 75.5082 280.201 74.0991 280.935 72.9173C281.67 71.7355 282.708 70.8264 284.049 70.1901C285.39 69.5537 286.962 69.2355 288.765 69.2355C290.629 69.2355 292.242 69.5347 293.606 70.1332C294.977 70.7241 296.034 71.5575 296.776 72.6332C297.526 73.709 297.901 74.9704 297.901 76.4173C297.901 77.3113 297.716 78.2014 297.345 79.0878C296.973 79.9666 296.307 80.9401 295.345 82.0082C294.382 83.0764 293.015 84.3491 291.242 85.8264L289.06 87.6446V87.781H298.151V92.8264H280.288ZM312.384 69.5537V92.8264H306.066V75.3719H305.93L300.839 78.4173V73.0537L306.566 69.5537H312.384ZM326.481 93.1446C324.693 93.1446 323.106 92.8302 321.72 92.2014C320.341 91.5651 319.254 90.6901 318.458 89.5764C317.67 88.4628 317.269 87.1825 317.254 85.7355H323.39C323.413 86.5385 323.723 87.1787 324.322 87.656C324.928 88.1332 325.648 88.3719 326.481 88.3719C327.125 88.3719 327.693 88.2355 328.185 87.9628C328.678 87.6825 329.064 87.2885 329.345 86.781C329.625 86.2734 329.761 85.6825 329.754 85.0082C329.761 84.3264 329.625 83.7355 329.345 83.2355C329.064 82.7279 328.678 82.3378 328.185 82.0651C327.693 81.7847 327.125 81.6446 326.481 81.6446C325.814 81.6446 325.197 81.8075 324.629 82.1332C324.068 82.4514 323.655 82.8946 323.39 83.4628L317.845 82.3719L318.754 69.5537H334.39V74.5991H323.935L323.481 79.7355H323.617C323.981 79.031 324.61 78.4476 325.504 77.9855C326.398 77.5158 327.435 77.281 328.617 77.281C330.004 77.281 331.238 77.6029 332.322 78.2469C333.413 78.8908 334.273 79.781 334.901 80.9173C335.538 82.0461 335.852 83.3491 335.845 84.8264C335.852 86.4476 335.466 87.887 334.685 89.1446C333.913 90.3946 332.826 91.3757 331.424 92.0878C330.023 92.7923 328.375 93.1446 326.481 93.1446ZM355.08 93.4628C352.967 93.4552 351.141 92.9666 349.603 91.9969C348.065 91.0272 346.88 89.6294 346.046 87.8037C345.213 85.9779 344.8 83.7885 344.808 81.2355C344.815 78.6749 345.232 76.5007 346.058 74.7128C346.891 72.9249 348.073 71.5651 349.603 70.6332C351.141 69.7014 352.967 69.2355 355.08 69.2355C357.194 69.2355 359.02 69.7052 360.558 70.6446C362.095 71.5764 363.281 72.9363 364.114 74.7241C364.948 76.512 365.361 78.6825 365.353 81.2355C365.353 83.8037 364.936 86.0007 364.103 87.8264C363.27 89.6522 362.084 91.0499 360.546 92.0196C359.016 92.9817 357.194 93.4628 355.08 93.4628ZM355.08 88.3264C356.171 88.3264 357.065 87.7582 357.762 86.6219C358.467 85.4779 358.815 83.6825 358.808 81.2355C358.808 79.637 358.648 78.3302 358.33 77.3151C358.012 76.2999 357.573 75.5499 357.012 75.0651C356.452 74.5726 355.808 74.3264 355.08 74.3264C353.989 74.3264 353.099 74.8794 352.41 75.9855C351.72 77.0916 351.368 78.8416 351.353 81.2355C351.345 82.8643 351.501 84.2052 351.819 85.2582C352.137 86.3037 352.577 87.0764 353.137 87.5764C353.705 88.0764 354.353 88.3264 355.08 88.3264ZM378.455 93.4628C376.342 93.4552 374.516 92.9666 372.978 91.9969C371.44 91.0272 370.255 89.6294 369.421 87.8037C368.588 85.9779 368.175 83.7885 368.183 81.2355C368.19 78.6749 368.607 76.5007 369.433 74.7128C370.266 72.9249 371.448 71.5651 372.978 70.6332C374.516 69.7014 376.342 69.2355 378.455 69.2355C380.569 69.2355 382.395 69.7052 383.933 70.6446C385.47 71.5764 386.656 72.9363 387.489 74.7241C388.323 76.512 388.736 78.6825 388.728 81.2355C388.728 83.8037 388.311 86.0007 387.478 87.8264C386.645 89.6522 385.459 91.0499 383.921 92.0196C382.391 92.9817 380.569 93.4628 378.455 93.4628ZM378.455 88.3264C379.546 88.3264 380.44 87.7582 381.137 86.6219C381.842 85.4779 382.19 83.6825 382.183 81.2355C382.183 79.637 382.023 78.3302 381.705 77.3151C381.387 76.2999 380.948 75.5499 380.387 75.0651C379.827 74.5726 379.183 74.3264 378.455 74.3264C377.364 74.3264 376.474 74.8794 375.785 75.9855C375.095 77.0916 374.743 78.8416 374.728 81.2355C374.72 82.8643 374.876 84.2052 375.194 85.2582C375.512 86.3037 375.952 87.0764 376.512 87.5764C377.08 88.0764 377.728 88.3264 378.455 88.3264ZM401.83 93.4628C399.717 93.4552 397.891 92.9666 396.353 91.9969C394.815 91.0272 393.63 89.6294 392.796 87.8037C391.963 85.9779 391.55 83.7885 391.558 81.2355C391.565 78.6749 391.982 76.5007 392.808 74.7128C393.641 72.9249 394.823 71.5651 396.353 70.6332C397.891 69.7014 399.717 69.2355 401.83 69.2355C403.944 69.2355 405.77 69.7052 407.308 70.6446C408.845 71.5764 410.031 72.9363 410.864 74.7241C411.698 76.512 412.111 78.6825 412.103 81.2355C412.103 83.8037 411.686 86.0007 410.853 87.8264C410.02 89.6522 408.834 91.0499 407.296 92.0196C405.766 92.9817 403.944 93.4628 401.83 93.4628ZM401.83 88.3264C402.921 88.3264 403.815 87.7582 404.512 86.6219C405.217 85.4779 405.565 83.6825 405.558 81.2355C405.558 79.637 405.398 78.3302 405.08 77.3151C404.762 76.2999 404.323 75.5499 403.762 75.0651C403.202 74.5726 402.558 74.3264 401.83 74.3264C400.739 74.3264 399.849 74.8794 399.16 75.9855C398.47 77.0916 398.118 78.8416 398.103 81.2355C398.095 82.8643 398.251 84.2052 398.569 85.2582C398.887 86.3037 399.327 87.0764 399.887 87.5764C400.455 88.0764 401.103 88.3264 401.83 88.3264ZM434.353 85.0991H421.58V80.1901H434.126C434.936 80.1901 435.595 80.0916 436.103 79.8946C436.618 79.6901 436.993 79.3946 437.228 79.0082C437.47 78.6143 437.588 78.1294 437.58 77.5537C437.588 77.0082 437.47 76.5082 437.228 76.0537C436.993 75.5991 436.633 75.2355 436.148 74.9628C435.671 74.6901 435.073 74.5537 434.353 74.5537H430.898V92.8264H424.626V69.5537H434.353C436.27 69.5537 437.948 69.8908 439.387 70.5651C440.834 71.2393 441.955 72.1711 442.751 73.3605C443.554 74.5499 443.952 75.9173 443.944 77.4628C443.952 79.1294 443.542 80.531 442.717 81.6673C441.891 82.7961 440.755 83.6522 439.308 84.2355C437.861 84.8113 436.209 85.0991 434.353 85.0991ZM435.944 86.1446V91.0537H421.58V86.1446H435.944Z"
              fill="#FF6536"/>
        <path d="M189.5 152.5L142.5 105.5H236.5L189.5 152.5Z" fill="white"/>
    </g>
    <defs>
        <filter id="filter0_d_1_979" x="0" y="0" width="514" height="184.5" filterUnits="userSpaceOnUse"
                color-interpolation-filters="sRGB">
            <feFlood flood-opacity="0" result="BackgroundImageFix"/>
            <feColorMatrix in="SourceAlpha" type="matrix" values="0 0 0 0 0 0 0 0 0 0 0 0 0 0 0 0 0 0 127 0"
                           result="hardAlpha"/>
            <feOffset/>
            <feGaussianBlur stdDeviation="16"/>
            <feComposite in2="hardAlpha" operator="out"/>
            <feColorMatrix type="matrix" values="0 0 0 0 0.305882 0 0 0 0 0.364706 0 0 0 0 0.486275 0 0 0 0.32 0"/>
            <feBlend mode="normal" in2="BackgroundImageFix" result="effect1_dropShadow_1_979"/>
            <feBlend mode="normal" in="SourceGraphic" in2="effect1_dropShadow_1_979" result="shape"/>
        </filter>
    </defs>
</svg>
